<svg width="64" height="64" viewBox="0 0 64 64" fill="none" xmlns="http://www.w3.org/2000/svg">
<rect width="64" height="64" rx="12" fill="#FFCD00"/>
<path d="M43.9996 44.6665V47.9999H41.3329V44.6665C41.3329 42.8279 39.8382 41.3332 37.9996 41.3332H25.9996C24.1622 41.3332 22.6662 42.8279 22.6662 44.6665V47.9999H19.9996V44.6665C19.9996 41.3585 22.6916 38.6665 25.9996 38.6665H37.9996C41.3076 38.6665 43.9996 41.3585 43.9996 44.6665ZM33.0982 24.1265C34.7716 24.5119 36.1356 25.8652 36.5316 27.5359C36.7996 28.6652 36.6529 29.7479 36.2142 30.6665H37.9556C38.6236 30.6665 39.2076 30.1759 39.2849 29.5119C39.3756 28.7292 39.3422 27.9092 39.1636 27.0705C38.5716 24.2985 36.3222 22.0625 33.5462 21.4919C28.8302 20.5225 24.6676 24.1185 24.6676 28.6665C24.6676 30.6252 25.4396 32.4065 26.6942 33.7225C26.7476 32.5919 27.1556 31.5532 27.8089 30.7145C27.5049 30.0959 27.3342 29.3999 27.3342 28.6652C27.3342 25.7332 30.0516 23.4239 33.0996 24.1252L33.0982 24.1265ZM25.1609 21.3705C27.1996 19.4599 29.8689 18.5159 32.6676 18.6892C37.8996 19.0279 41.9996 23.5812 41.9996 29.0545C41.9996 31.4145 40.0809 33.3332 37.7209 33.3332H34.5249C34.2009 32.2252 33.1782 31.4145 31.9649 31.4145C30.4916 31.4145 29.2982 32.6079 29.2982 34.0812C29.2982 35.5545 30.4916 36.7479 31.9649 36.7479C32.6836 36.7479 33.3369 36.4625 33.8156 35.9999H37.7196C41.5489 35.9999 44.6649 32.8839 44.6649 29.0545C44.6662 22.1785 39.4716 16.4559 32.8396 16.0279C29.2876 15.7972 25.9182 17.0039 23.3382 19.4252C20.9556 21.6585 19.5236 24.7532 19.3516 28.0012H22.0222C22.1862 25.4639 23.2862 23.1292 25.1622 21.3705H25.1609Z" fill="#011A5D"/>
</svg>
